<svg id="Layer_1" data-name="Layer 1" xmlns="http://www.w3.org/2000/svg" viewBox="0 0 1008.2 4757"><defs><style>.cls-1{fill:#5f42ed;}.cls-2{fill:#4558f7;}.cls-3{fill:#4b81e0;}.cls-4{fill:#45b5f7;}.cls-5,.cls-6,.cls-7,.cls-8,.cls-9{fill:none;stroke-miterlimit:10;}.cls-5,.cls-6,.cls-7,.cls-9{stroke:#4558f7;}.cls-5{stroke-width:6px;}.cls-6{stroke-width:10px;}.cls-7{stroke-width:26px;}.cls-8{stroke:#45b5f7;stroke-width:11px;}.cls-9{stroke-width:22px;}</style></defs><rect x="0.2" y="209" width="1008" height="4548"/><path class="cls-1" d="M-.2,505.83l33.61-42.15c33.6-42.56,100.82-126.16,168-132.6,67.21-5.95,134.43,66.3,201.64,114.54,67.21,47.75,134.43,72.61,201.64,54.19,67.21-17.71,134.43-78.69,201.64-96.48,67.21-18.41,134.43,6.44,168,18.07L1008,433.51V216.68H-.2Z" transform="translate(0.2 15)"/><path class="cls-2" d="M-.2,475.73l33.61-42.15c33.6-42.5,100.82-126.1,168-132.54,67.21-6,134.43,66.31,201.64,114.55,67.21,47.74,134.43,72.6,201.64,54.19,67.21-17.72,134.43-78.7,201.64-96.48,67.21-18.42,134.43,6.44,168,18.06L1008,403.47V186.64H-.2Z" transform="translate(0.2 15)"/><path class="cls-3" d="M-.2,384l33.61-42.15c33.6-42.5,100.82-126.09,168-132.54,67.21-5.95,134.43,66.31,201.64,114.55,67.21,47.75,134.43,72.6,201.64,54.19,67.21-17.72,134.43-78.7,201.64-96.48,67.21-18.41,134.43,6.44,168,18.06L1008,311.75V94.92H-.2Z" transform="translate(0.2 15)"/><path class="cls-3" d="M-.2,274.09l33.61-42.15c33.6-42.5,100.82-126.1,168-132.54,67.21-6,134.43,66.31,201.64,114.55,67.21,47.74,134.43,72.6,201.64,54.19,67.21-17.72,134.43-78.7,201.64-96.48,67.21-18.42,134.43,6.44,168,18.06L1008,201.83V-15H-.2Z" transform="translate(0.2 15)"/><path class="cls-4" d="M-.2,230l33.61-35.71C67,158.21,134.23,87.36,201.44,81.9c67.21-5,134.43,56.15,201.64,97,67.21,40.47,134.43,61.54,201.64,45.93,67.21-15.06,134.43-66.73,201.64-81.71,67.21-15.61,134.43,5.46,168,15.33L1008,168.72V-15H-.2Z" transform="translate(0.2 15)"/><circle class="cls-5" cx="155.7" cy="806.5" r="119.5"/><circle class="cls-5" cx="204.7" cy="761.5" r="119.5"/><path class="cls-2" d="M208,734.68,158.1,788.16l-14.27,15.29c-1.31,1.41.81,3.53,2.13,2.12l49.94-53.49,14.27-15.28c1.31-1.41-.81-3.54-2.13-2.12Z" transform="translate(0.2 15)"/><circle class="cls-6" cx="848.2" cy="846" r="146"/><circle class="cls-7" cx="848.2" cy="846" r="111.5"/><circle class="cls-8" cx="205.2" cy="1327" r="166.5"/><circle class="cls-8" cx="204.7" cy="1327.5" r="181"/><circle class="cls-9" cx="847.78" cy="846.26" r="27.42"/></svg>