<svg id="Layer_1" data-name="Layer 1" xmlns="http://www.w3.org/2000/svg" xmlns:xlink="http://www.w3.org/1999/xlink" viewBox="0 0 1009.3 2933.8"><defs><style>.cls-1{fill:url(#linear-gradient);}.cls-2{fill:url(#linear-gradient-2);}.cls-3{fill:url(#linear-gradient-3);}.cls-4,.cls-6,.cls-7,.cls-8,.cls-9{fill:none;stroke-miterlimit:10;}.cls-4,.cls-6,.cls-7,.cls-9{stroke:#4558f7;}.cls-4{stroke-width:6px;}.cls-5{fill:#4558f7;}.cls-6{stroke-width:10px;}.cls-7{stroke-width:26px;}.cls-8{stroke:#45b5f7;stroke-width:11px;}.cls-9{stroke-width:22px;}.cls-10{fill:url(#linear-gradient-4);}.cls-11{fill:url(#linear-gradient-5);}.cls-12{fill:url(#linear-gradient-6);}.cls-13{fill:url(#linear-gradient-7);}</style><linearGradient id="linear-gradient" x1="1.1" y1="244.73" x2="1009.3" y2="244.73" gradientUnits="userSpaceOnUse"><stop offset="0" stop-color="#3c72d6"/><stop offset="1" stop-color="#3b5094"/></linearGradient><linearGradient id="linear-gradient-2" x1="1.1" y1="144.81" x2="1009.3" y2="144.81" xlink:href="#linear-gradient"/><linearGradient id="linear-gradient-3" x1="1.1" y1="122.7" x2="1009.3" y2="122.7" xlink:href="#linear-gradient"/><linearGradient id="linear-gradient-4" x1="0.97" y1="329.41" x2="1009.17" y2="329.41" xlink:href="#linear-gradient"/><linearGradient id="linear-gradient-5" x1="0" y1="616.18" x2="1008.2" y2="616.18" xlink:href="#linear-gradient"/><linearGradient id="linear-gradient-6" y1="305.97" x2="1008.2" y2="305.97" gradientTransform="translate(1008.2 642.97) rotate(180)" gradientUnits="userSpaceOnUse"><stop offset="0" stop-color="#3b5094"/><stop offset="1" stop-color="#3c72d6"/></linearGradient><linearGradient id="linear-gradient-7" x1="0" y1="196.03" x2="1008.2" y2="196.03" xlink:href="#linear-gradient-6"/></defs><rect x="1.3" y="209" width="1008" height="2724.8"/><path class="cls-1" d="M1.1,389.2l33.61-42.15c33.6-42.5,100.82-126.09,168-132.54,67.21-5.95,134.43,66.31,201.64,114.55,67.21,47.75,134.43,72.6,201.64,54.19,67.21-17.72,134.43-78.7,201.64-96.48,67.21-18.41,134.43,6.44,168,18.06L1009.3,317V100.12H1.1Z" transform="translate(0 -0.2)"/><path class="cls-2" d="M1.1,289.29l33.61-42.15c33.6-42.5,100.82-126.1,168-132.54,67.21-6,134.43,66.31,201.64,114.55,67.21,47.74,134.43,72.6,201.64,54.19,67.21-17.72,134.43-78.7,201.64-96.48,67.21-18.42,134.43,6.44,168,18.06L1009.3,217V.2H1.1Z" transform="translate(0 -0.2)"/><path class="cls-3" d="M1.1,245.2l33.61-35.71c33.59-36.08,100.82-106.93,168-112.39,67.21-5,134.43,56.15,201.64,97C471.59,234.57,538.81,255.64,606,240,673.23,225,740.45,173.3,807.66,158.32c67.21-15.61,134.43,5.46,168,15.33l33.64,10.27V.2H1.1Z" transform="translate(0 -0.2)"/><circle class="cls-4" cx="146.8" cy="949.62" r="119.5"/><circle class="cls-4" cx="195.8" cy="904.62" r="119.5"/><path class="cls-5" d="M199.3,893l-49.9,53.48-14.27,15.29c-1.31,1.41.81,3.53,2.13,2.12L187.2,910.4l14.27-15.28c1.31-1.41-.81-3.54-2.13-2.12Z" transform="translate(0 -0.2)"/><circle class="cls-6" cx="853.3" cy="1110.12" r="146"/><circle class="cls-7" cx="853.3" cy="1110.12" r="111.5"/><circle class="cls-8" cx="189.3" cy="1769.12" r="166.5"/><circle class="cls-8" cx="188.8" cy="1769.62" r="181"/><circle class="cls-9" cx="852.88" cy="1110.38" r="27.42"/><path class="cls-10" d="M1,473.88l33.61-42.15c33.6-42.5,100.82-126.09,168-132.54C269.79,293.24,337,365.5,404.22,413.74c67.21,47.75,134.43,72.6,201.64,54.19,67.21-17.72,134.43-78.7,201.64-96.48,67.21-18.41,134.43,6.44,168,18.06l33.67,12.12V184.8H1Z" transform="translate(0 -0.2)"/><path class="cls-11" d="M0,695.35l33.61-23.08c33.59-23.32,100.82-69.11,168-72.64,67.21-3.23,134.43,36.29,201.64,62.7C470.49,688.48,537.71,702.1,604.92,692c67.21-9.73,134.43-43.13,201.64-52.81,67.21-10.09,134.43,3.53,168,9.91l33.64,6.64V537H0Z" transform="translate(0 -0.2)"/><path class="cls-12" d="M1008.2,185.15l-33.61,44.3C941,274.12,873.77,362,806.59,368.76,739.38,375,672.16,299.06,605,248.36c-67.21-50.19-134.43-76.31-201.64-57C336.1,210,268.88,274.12,201.67,292.81c-67.21,19.35-134.43-6.77-168-19L0,261.09V489H1008.2Z" transform="translate(0 -0.2)"/><path class="cls-13" d="M1008.2,340l-33.61,31.2c-33.6,31.45-100.82,93.31-168,98.08-67.21,4.4-134.43-49.07-201.64-84.77-67.21-35.34-134.43-53.73-201.64-40.1-67.21,13.11-134.43,58.24-201.64,71.39-67.21,13.63-134.43-4.76-168-13.36L0,393.5V554H1008.2Z" transform="translate(0 -0.2)"/></svg>